<svg width="64" height="64" viewBox="0 0 64 64" fill="none" xmlns="http://www.w3.org/2000/svg">
  <!-- Outer Glow -->
  <circle cx="32" cy="32" r="30" fill="url(#logoGradientGlow)" opacity="0.2"/>
  
  <!-- Main Background Circle -->
  <circle cx="32" cy="32" r="27" fill="url(#logoGradient)"/>
  
  <!-- Inner Hexagon -->
  <path d="M32 12L42 18L46 28L42 38L32 44L22 38L18 28L22 18L32 12Z" stroke="white" stroke-width="2" fill="none" opacity="0.25"/>
  
  <!-- Code Brackets -->
  <path d="M16 22L12 32L16 42M48 22L52 32L48 42" stroke="white" stroke-width="4.5" stroke-linecap="round" stroke-linejoin="round"/>
  
  <!-- Central Hub -->
  <circle cx="32" cy="32" r="11" stroke="white" stroke-width="3" fill="none" opacity="0.9"/>
  <circle cx="32" cy="32" r="6" fill="white" opacity="0.95"/>
  
  <!-- CI/CD Flow Arrow -->
  <path d="M20 32H44M36 24L44 32L36 40" stroke="white" stroke-width="4" stroke-linecap="round" stroke-linejoin="round" fill="none"/>
  
  <!-- Decorative Nodes -->
  <circle cx="26" cy="18" r="2.5" fill="white" opacity="0.8"/>
  <circle cx="38" cy="18" r="2.5" fill="white" opacity="0.8"/>
  <circle cx="26" cy="46" r="2.5" fill="white" opacity="0.8"/>
  <circle cx="38" cy="46" r="2.5" fill="white" opacity="0.8"/>
  
  <!-- Gradients -->
  <defs>
    <linearGradient id="logoGradient" x1="0" y1="0" x2="64" y2="64" gradientUnits="userSpaceOnUse">
      <stop offset="0%" stop-color="#6366f1"/>
      <stop offset="30%" stop-color="#4f46e5"/>
      <stop offset="70%" stop-color="#3b82f6"/>
      <stop offset="100%" stop-color="#2563eb"/>
    </linearGradient>
    <linearGradient id="logoGradientGlow" x1="0" y1="0" x2="64" y2="64" gradientUnits="userSpaceOnUse">
      <stop offset="0%" stop-color="#818cf8"/>
      <stop offset="100%" stop-color="#6366f1"/>
    </linearGradient>
  </defs>
</svg>

